<svg xmlns="http://www.w3.org/2000/svg" xmlns:xlink="http://www.w3.org/1999/xlink" xmlns:svgjs="http://svgjs.com/svgjs" id="SvgjsSvg1006" version="1.1" viewBox="0 0 50 50"><defs id="SvgjsDefs1007"/><g id="SvgjsG1008" transform="matrix(1,0,0,1,0,0)"><svg xmlns="http://www.w3.org/2000/svg" xmlns:xlink="http://www.w3.org/1999/xlink" width="288" height="288"><path fill="#525252" d="M0 0h50v50H0z" class="colorf2f3f5 svgShape"/><g fill="#003869" fill-opacity=".99" transform="matrix(-1.59677 0 0 -1.59677 125.16 230.136)" class="colordbe0e4 svgShape"><use x="72.024" y="82.46" transform="translate(31.716 89.537) scale(.35278)" xlink:href="#C"/><g fill-rule="evenodd" transform="translate(23.093 58.885) scale(.5696)" fill="#b1b1b1" class="color000 svgShape"><path d="M52.742 136.967H67.98v-15.233H52.742z" fill="#b1b1b1" class="color000 svgShape"/><path d="M65.265 107.357c-7.56 0-12.726 9.84-12.533 14.5s6.128 13.517 13.687 13.517v-6.76c-3.825 0-6.43-3.16-6.43-6.893s4.12-8.1 7.946-8.1c-3.134-7.204-.028-.054-2.668-6.266zm5.95 29.613h15.222v-15.23H71.214z" fill="#b1b1b1" class="color000 svgShape"/><path d="M83.717 107.36c-7.55 0-12.707 9.835-12.517 14.505s6.12 13.523 13.67 13.523v-6.763c-3.82 0-6.424-3.157-6.424-6.89s4.113-8.11 7.935-8.11l-2.664-6.265z" fill="#b1b1b1" class="color000 svgShape"/></g></g></svg></g></svg>